<svg version="1.1" id="Layer_1" xmlns="http://www.w3.org/2000/svg" xmlns:xlink="http://www.w3.org/1999/xlink" x="0px" y="0px"
	 width="100%" viewBox="0 0 352 352" enable-background="new 0 0 352 352" xml:space="preserve">
<path fill="#000000" opacity="1.000000" stroke="none" 
	d="
M281.982910,150.983078 
	C274.402161,154.684601 265.965332,155.128799 257.963013,157.224579 
	C242.985672,161.147034 227.990677,164.946915 213.841187,171.411835 
	C209.882416,173.220612 206.129120,175.371719 203.035965,178.494583 
	C199.249695,182.317245 199.172897,185.306046 202.916489,189.282745 
	C206.747131,193.351929 211.689224,195.875488 216.520508,198.476547 
	C226.193344,203.684174 236.348740,207.954758 245.803085,213.602158 
	C249.978104,216.096039 253.871124,218.883331 257.283997,222.362274 
	C264.853821,230.078705 265.087036,240.337173 257.548096,248.179459 
	C249.487915,256.563995 239.047668,261.102295 228.475632,265.210724 
	C200.576675,276.052582 171.415207,282.061493 142.067383,287.238525 
	C129.794724,289.403412 117.441353,291.108612 105.131538,293.065948 
	C100.404556,293.817566 96.682449,292.991058 93.291313,288.904541 
	C78.254784,270.784729 63.772781,252.341553 54.109398,230.629578 
	C46.504257,213.542114 45.414036,196.650589 55.355225,179.951035 
	C67.403259,159.712311 94.721275,150.558960 116.500771,159.592331 
	C140.204330,169.423721 152.712143,193.635818 146.561218,217.599457 
	C142.122330,234.893021 132.524017,249.486954 122.569550,263.903320 
	C116.062157,273.327515 108.413223,281.870972 100.845825,291.426117 
	C121.214836,286.876190 140.713760,281.994080 160.131775,276.783356 
	C183.127151,270.612671 206.041153,264.176514 227.943344,254.662964 
	C234.830673,251.671387 241.591476,248.380371 247.361313,243.467224 
	C254.353348,237.513382 254.267181,232.957687 247.119186,227.225937 
	C237.535706,219.541275 226.120056,215.043137 215.489380,209.179199 
	C209.365311,205.801132 203.129028,202.591171 197.999603,197.692047 
	C187.740479,187.893509 188.491226,177.798218 200.254440,169.976578 
	C209.988480,163.504150 221.121140,160.525177 232.300369,157.801544 
	C246.552826,154.329178 261.108337,152.661438 275.630035,150.834579 
	C277.424713,150.608826 279.282410,150.884171 281.556702,150.964355 
	C282.002533,151.001389 281.982910,150.983078 281.982910,150.983078 
M122.335716,193.243103 
	C121.729874,192.250717 121.185806,191.213882 120.508644,190.272827 
	C113.768219,180.905624 102.326668,176.409683 90.968674,179.607635 
	C79.544304,182.824265 72.496170,190.736115 70.859299,202.583527 
	C69.338318,213.592163 73.774727,222.437332 82.722595,228.815903 
	C92.763603,235.973785 105.828636,235.232651 115.607399,227.356842 
	C123.052368,221.360672 129.631973,207.579651 122.335716,193.243103 
z"/>
<path fill="#000000" opacity="1.000000" stroke="none" 
	d="
M282.013184,151.010101 
	C277.574188,143.174561 270.781036,137.061874 266.080231,129.395981 
	C259.985046,119.456154 253.512360,109.686821 253.697250,97.321602 
	C253.909683,83.116547 265.952209,69.746071 279.489655,68.727989 
	C297.013550,67.410103 310.569977,77.114845 313.482269,92.601898 
	C315.052094,100.949883 312.884094,108.393814 309.366333,115.689827 
	C303.390656,128.083603 295.116241,138.889847 286.090210,149.171387 
	C285.168884,150.220856 284.195251,151.032349 282.349213,150.973297 
	C281.982910,150.983078 282.002533,151.001389 282.013184,151.010101 
M294.305176,110.859779 
	C295.203461,109.878304 296.213409,108.976707 296.981903,107.902367 
	C301.872131,101.065712 300.413239,90.966843 293.853210,85.894417 
	C286.703918,80.366356 277.209259,81.353767 271.478210,88.221313 
	C266.262512,94.471359 266.372101,102.960190 271.749329,109.221230 
	C277.377991,115.775002 285.583771,116.564217 294.305176,110.859779 
z"/>
</svg>