<svg xmlns="http://www.w3.org/2000/svg" viewBox="0 0 20 20" id="full-volume">
  <path d="M10.9,4.323a1.4918,1.4918,0,0,0-1.4932-.021A7.7477,7.7477,0,0,0,6.6367,6.8H6.0635a2.5026,2.5026,0,0,0-2.5,2.5v1.4a2.5026,2.5026,0,0,0,2.5,2.5h.5732a7.7532,7.7532,0,0,0,2.77,2.498,1.5066,1.5066,0,0,0,2.2344-1.314V5.6155A1.4875,1.4875,0,0,0,10.9,4.323Zm-.2588,10.061a.4948.4948,0,0,1-.248.4312.5008.5008,0,0,1-.502.0083,6.4447,6.4447,0,0,1-2.5225-2.3472A.5.5,0,0,0,6.9219,12.2H6.0635a1.5016,1.5016,0,0,1-1.5-1.5V9.3a1.5016,1.5016,0,0,1,1.5-1.5h.8584a.5032.5032,0,0,0,.4463-.2749A6.4432,6.4432,0,0,1,9.8916,5.1765a.5011.5011,0,0,1,.502.0078.4951.4951,0,0,1,.248.4312ZM16.4365,10a7.2645,7.2645,0,0,1-1.2011,4.0044.5007.5007,0,0,1-.418.2251.4916.4916,0,0,1-.2744-.0826.5.5,0,0,1-.1436-.6923,6.2722,6.2722,0,0,0,0-6.9092.5.5,0,0,1,.836-.55A7.2643,7.2643,0,0,1,16.4365,10Zm-2,0a5.2736,5.2736,0,0,1-.872,2.9048.5007.5007,0,0,1-.418.2251.4916.4916,0,0,1-.2744-.0826.5.5,0,0,1-.1436-.6923,4.2707,4.2707,0,0,0,0-4.71.5.5,0,0,1,.836-.55A5.2736,5.2736,0,0,1,14.4365,10Z"></path>
</svg>
